<svg id="Layer_1" data-name="Layer 1" xmlns="http://www.w3.org/2000/svg" viewBox="0 0 141.26 42.57"><defs><style>.cls-1{fill:#a4a5a5;}</style></defs><title>Logos</title><path class="cls-1" d="M56.38,9.48l4.17-2V29.37c0,2.19.65,3.5,2,3.92a3.41,3.41,0,0,1-3.29,1.83q-2.84,0-2.84-3.92V9.48Z"/><path class="cls-1" d="M79.94,27.17H67.2a4.52,4.52,0,0,0,1.47,3.3,5.3,5.3,0,0,0,3.63,1.17,4.87,4.87,0,0,0,1.6-.13,4.12,4.12,0,0,1,2.57-.23,2.67,2.67,0,0,1,1.2,1.13,7.14,7.14,0,0,1,.57.93c-1.47,1.18-3.65,1.78-6.56,1.78a8.65,8.65,0,0,1-6.45-2.39,9,9,0,0,1-2.37-6.65,9.13,9.13,0,0,1,2.61-6.79A9.13,9.13,0,0,1,77.94,19a7.88,7.88,0,0,1,2.35,5.88,11.82,11.82,0,0,1-.35,2.31M67.36,24.05h8.75q-.44-3.9-4.33-3.9c-2.37,0-3.85,1.3-4.42,3.9"/><path class="cls-1" d="M53.72,27.17H41a4.52,4.52,0,0,0,1.46,3.3,5.3,5.3,0,0,0,3.63,1.17,4.91,4.91,0,0,0,1.61-.13,4.12,4.12,0,0,1,2.57-.23,2.6,2.6,0,0,1,1.19,1.13,7.14,7.14,0,0,1,.57.93c-1.46,1.18-3.65,1.78-6.56,1.78A8.61,8.61,0,0,1,39,32.73a9,9,0,0,1-2.38-6.65,9.16,9.16,0,0,1,2.61-6.79,8.51,8.51,0,0,1,6.25-2.62A8.48,8.48,0,0,1,51.72,19a7.88,7.88,0,0,1,2.35,5.88,11.09,11.09,0,0,1-.35,2.31M41.14,24.05h8.75c-.28-2.6-1.73-3.9-4.32-3.9q-3.57,0-4.43,3.9"/><path class="cls-1" d="M95.17,35.12a1.75,1.75,0,0,1-1.42-.76c-.18-.26-5-7.59-5-7.59l-2,2.11v6.24H82.61V9.39l4.16-1.91V23.87l6.32-7.19h5l-6.4,7.1,7.49,11.33h-4Z"/><path class="cls-1" d="M102.48,20h-5l3-3.34h2.07V13.06l4.16-1.53v5.15h4.89V20h-4.89v8.12a4.54,4.54,0,0,0,.6,2.69,2.47,2.47,0,0,0,2.1.79,5.17,5.17,0,0,0,2.79-.81v3.82a13.31,13.31,0,0,1-4.13.5,5.4,5.4,0,0,1-4.09-1.51,6,6,0,0,1-1.43-4.27V20Z"/><path class="cls-1" d="M125.15,18.21a4.57,4.57,0,0,0-.23,2.88,5.07,5.07,0,0,0-2.92-.92,4.06,4.06,0,0,0-2.87,1.36,4.74,4.74,0,0,0-1.13,3.2v10.4h-4.15V16.69H118v2a5.85,5.85,0,0,1,4.55-2,8,8,0,0,1,3.32.63,2.77,2.77,0,0,0-.72.91"/><path class="cls-1" d="M139.82,29.35V25.54c0-3.43-.64-5.77-1.9-7s-2.57-1.88-5.29-1.88a11.88,11.88,0,0,0-3.13.35c-3,.87-1.77,3.92-1.77,3.92h0l.1-.05.57-.23a9.67,9.67,0,0,1,3.26-.5q4,0,4,3.14a7.05,7.05,0,0,0-1.73-.25,10.85,10.85,0,0,0-6.6,1.74A5.71,5.71,0,0,0,125,29.61a5.13,5.13,0,0,0,1.65,4.08,6.7,6.7,0,0,0,4.53,1.43,7.6,7.6,0,0,0,2.94-.59,4.05,4.05,0,0,0,2-1.52,3.54,3.54,0,0,0,1,1.45,2.48,2.48,0,0,0,1.62.66,3.14,3.14,0,0,0,1.45-.21,2.39,2.39,0,0,0,1.15-1.1c-1-.61-1.44-2.09-1.44-4.46m-4.15-1.26q0,3.73-3.74,3.73c-1.86,0-2.78-.79-2.78-2.39q0-3.22,4.92-3.22a9.3,9.3,0,0,1,1.6.22v1.66Z"/><path class="cls-1" d="M29.6,18.69l-4.42.88A4.45,4.45,0,0,1,24,23.4a4.14,4.14,0,0,1-5.38,1.07,6.47,6.47,0,0,1-2.51-3.23C19.43,18,19,14.56,17.22,11.39A8.17,8.17,0,0,0,11.75,7.6a15.44,15.44,0,0,0-5.44,3l3,3.44a4.31,4.31,0,0,1,3.85-.9,4.22,4.22,0,0,1,3.6,4.19,6.45,6.45,0,0,1-1.49,3.8c-4.41-1.27-7.15.81-8.95,4a8.42,8.42,0,0,0-.51,6.7A15.57,15.57,0,0,0,11,35.08l1.46-4.33a4.35,4.35,0,0,1-2.7-2.93,4.25,4.25,0,0,1,1.78-5.25,6.23,6.23,0,0,1,4-.59c1.12,4.52,4.26,5.89,7.87,5.89a8.17,8.17,0,0,0,6-2.91A15.81,15.81,0,0,0,29.6,18.69Z"/><path class="cls-1" d="M21.34,12.06c5.3,3.21.43,8.17.43,8.17a5.15,5.15,0,0,0,3.58-1.91c2-2.68,1.26-4.7.77-5.68a6.53,6.53,0,0,0-2-2h0l-.32-1-.71-2.18L20.43,9l.91,3.06Z"/><path class="cls-1" d="M11.56,16.73a5.15,5.15,0,0,0-3.42-2.18c-3.31-.48-4.65,1.23-5.23,2.16a6.63,6.63,0,0,0-.72,2.81L4.35,20.9,2.19,19.52l-.68.76L0,22l2.65,1.52L4.8,21.19h0C4.89,14.93,11.56,16.73,11.56,16.73Z"/><path class="cls-1" d="M13.65,27.37a5.33,5.33,0,0,0-.16,4.09C14.74,34.61,16.87,34.93,18,35a6.44,6.44,0,0,0,2.77-.78l.12-3.13C15.44,34.13,13.65,27.37,13.65,27.37Z"/><polygon class="cls-1" points="20.84 31.08 20.72 34.21 21.7 34.42 23.92 34.89 23.91 31.81 20.84 31.08"/></svg>