<svg id="Layer_1" data-name="Layer 1" xmlns="http://www.w3.org/2000/svg" viewBox="0 0 141.26 42.57"><defs><style>.cls-1{fill:#a4a5a5;}</style></defs><title>Logos</title><path id="s" class="cls-1" d="M48.84,23.5c-1.22-.66-1.84-1.21-1.84-2,0-1,.87-1.6,2.22-1.6a7.87,7.87,0,0,1,3,.66l1.11-3.4s-1-.8-4-.8c-4.18,0-7.08,2.4-7.08,5.76,0,1.91,1.36,3.37,3.16,4.41,1.46.83,2,1.42,2,2.29s-.73,1.63-2.08,1.63a9.4,9.4,0,0,1-3.93-1l-1.17,3.4A9,9,0,0,0,44.88,34c4.31,0,7.39-2.12,7.39-5.94C52.27,26,50.71,24.58,48.84,23.5Z"/><path id="h" class="cls-1" d="M66,16.36a6.48,6.48,0,0,0-5.07,2.53l-.07,0,1.84-9.61H57.89L53.24,33.7H58l1.6-8.36c.62-3.15,2.25-5.1,3.78-5.1,1.07,0,1.49.73,1.49,1.77a10.88,10.88,0,0,1-.21,2.12l-1.8,9.57h4.79l1.87-9.88a17.82,17.82,0,0,0,.35-3.13C69.9,18,68.47,16.36,66,16.36Z"/><path id="o" class="cls-1" d="M80.72,16.36c-5.76,0-9.57,5.2-9.57,11,0,3.72,2.29,6.7,6.59,6.7,5.65,0,9.47-5.07,9.47-11C87.21,19.62,85.2,16.36,80.72,16.36Zm-2.36,14C76.73,30.37,76,29,76,27.25c0-2.74,1.42-7.22,4-7.22,1.7,0,2.26,1.46,2.26,2.88C82.32,25.86,80.89,30.37,78.36,30.37Z"/><path id="p" class="cls-1" d="M99.46,16.36a6.55,6.55,0,0,0-5.07,2.84h-.07l.28-2.57H90.37c-.21,1.74-.59,4.38-1,6.35L86.06,40.5h4.79l1.32-7.07h.1a5.64,5.64,0,0,0,2.81.62c5.62,0,9.3-5.76,9.3-11.59C104.38,19.24,103,16.36,99.46,16.36ZM94.88,30.44a3,3,0,0,1-2-.69l.8-4.48c.55-3,2.11-5,3.78-5,1.45,0,1.91,1.35,1.91,2.64C99.39,26,97.55,30.44,94.88,30.44Z"/><path id="dot" class="cls-1" d="M111.22,9.49a2.73,2.73,0,0,0-2.74,2.77,2.2,2.2,0,0,0,2.25,2.4h.07a2.71,2.71,0,0,0,2.81-2.78A2.27,2.27,0,0,0,111.22,9.49Z"/><polygon id="i" class="cls-1" points="104.52 33.7 109.31 33.7 112.57 16.74 107.75 16.74 104.52 33.7"/><path id="f" class="cls-1" d="M124.75,16.7h-3.33l.17-.79c.28-1.63,1.25-3.09,2.84-3.09a5,5,0,0,1,1.53.24l.94-3.75a6.44,6.44,0,0,0-2.6-.41,7.13,7.13,0,0,0-4.69,1.59,9.09,9.09,0,0,0-2.77,5.42l-.14.79h-2.22l-.7,3.61H116L113.47,33.7h4.79l2.53-13.39h3.3Z"/><path id="y" class="cls-1" d="M136.26,16.74s-3,7.54-4.33,11.66h-.07c-.09-1.33-1.18-11.66-1.18-11.66h-5l2.88,15.58a1,1,0,0,1-.11.79,8.08,8.08,0,0,1-2.6,2.88,10.52,10.52,0,0,1-2.7,1.36l1.31,4a10.76,10.76,0,0,0,4.69-2.6c2.18-2,4.2-5.2,6.28-9.5l5.86-12.56Z"/><path class="cls-1" d="M23.64,5.74l-1.18.36a7.69,7.69,0,0,0-.56-1.38,4,4,0,0,0-3.52-2.43h0l-.3,0-.13-.15a3.09,3.09,0,0,0-2.45-1c-1.91.05-3.8,1.42-5.34,3.86A15.3,15.3,0,0,0,8,10.58L4.27,11.74c-1.1.34-1.13.38-1.28,1.41-.11.79-3,23.09-3,23.09l23.93,4.14V5.69A1.41,1.41,0,0,0,23.64,5.74ZM18.11,7.45l-4,1.25a9.52,9.52,0,0,1,2-3.95,3.89,3.89,0,0,1,1.37-1A9,9,0,0,1,18.11,7.45Zm-2.59-5a2,2,0,0,1,1.15.3,5.55,5.55,0,0,0-1.48,1.15,11.09,11.09,0,0,0-2.5,5.25l-3.32,1C10,7.1,12.59,2.52,15.52,2.43Zm-3.7,17.41c.13,2,5.48,2.48,5.79,7.24.23,3.76-2,6.32-5.2,6.52a7.76,7.76,0,0,1-6-2l.81-3.47s2.14,1.61,3.85,1.51A1.51,1.51,0,0,0,12.57,28c-.17-2.66-4.53-2.5-4.8-6.87-.24-3.67,2.17-7.39,7.5-7.72a6.52,6.52,0,0,1,3.09.39l-1.21,4.55a6.83,6.83,0,0,0-3-.51C11.82,18,11.8,19.46,11.82,19.84ZM19.38,7.06A10.53,10.53,0,0,0,18.8,3.6c1.44.27,2.15,1.9,2.45,2.88Z"/><path class="cls-1" d="M24.72,40.29l9.93-2.47L30.34,8.72A.39.39,0,0,0,30,8.4l-2.94-.05L24.72,6.07Z"/></svg>